# xmcd
#
# Track frame offsets:
#	150
#	21110
#	31251
#	46448
#	65328
#	88966
#	102696
#	120177
#	140162
#	155642
#	170895
#	185960
#	197790
#	224212
#	240497
#	250001
#	268431
#	288380
#	309017
#
# Disc length: 4520 seconds
#
# Revision: 0
# Processed by: cddbd v1.5.2PL0 Copyright (c) Steve Scherf et al.
# Submitted via: audiograbber 1.83.01
#
DISCID=2b11a613
DTITLE=Verschiedene - Alpenpower Blues aus Bayern
DYEAR=2012
DGENRE=Bavarian
TTITLE0=Konstantin Wecker - Blues
TTITLE1=Zither Manae - Am Waldesrand
TTITLE2=Horst Biewald - Logga
TTITLE3=Schorsch and de Bagasch - Dram an Blues
TTITLE4=Turbolenz - Da Deife
TTITLE5=blues blosn - Entscheidungen
TTITLE6=Williams Wetsox - S' zwoate Moi
TTITLE7=Sparifankal - Oaschichtiga Mo
TTITLE8=Stefan Dettl - Weil i di mog
TTITLE9=Michael Fitz - Heut auf'd Nacht
TTITLE10=Kranzbergg - Da Pfaff
TTITLE11=Keller Steff - Hoizschneck
TTITLE12=Spider Murphy Gang - Johnny B. Goode
TTITLE13=Tiger Willi - Döner
TTITLE14=Peter Jacobi - Giasing Giasing
TTITLE15=Hans Soellner - I schrei
TTITLE16=Ringsgwandl - Kneissl
TTITLE17=Claudia Koreck - Dahoam
TTITLE18=Blueswurz - A super Frau
EXTD=
EXTT0=
EXTT1=
EXTT2=
EXTT3=
EXTT4=
EXTT5=
EXTT6=
EXTT7=
EXTT8=
EXTT9=
EXTT10=
EXTT11=
EXTT12=
EXTT13=
EXTT14=
EXTT15=
EXTT16=
EXTT17=
EXTT18=
PLAYORDER=
